<svg width="48" height="48" viewBox="0 0 48 48" fill="none" xmlns="http://www.w3.org/2000/svg">
    <path d="M38.65 15.3V11H34.35V7.99999H38.65V3.64999H41.65V7.99999H46V11H41.65V15.3H38.65ZM4.70001 44C3.90001 44 3.20001 43.7 2.60001 43.1C2.00001 42.5 1.70001 41.8 1.70001 41V15.35C1.70001 14.5833 2.00001 13.8917 2.60001 13.275C3.20001 12.6583 3.90001 12.35 4.70001 12.35H12.05L15.7 7.99999H29.7V11H17.1L13.45 15.35H4.70001V41H38.7V20H41.7V41C41.7 41.8 41.3917 42.5 40.775 43.1C40.1583 43.7 39.4667 44 38.7 44H4.70001ZM21.7 36.7C24.1 36.7 26.1167 35.8833 27.75 34.25C29.3833 32.6167 30.2 30.5833 30.2 28.15C30.2 25.75 29.3833 23.7417 27.75 22.125C26.1167 20.5083 24.1 19.7 21.7 19.7C19.2667 19.7 17.2417 20.5083 15.625 22.125C14.0083 23.7417 13.2 25.75 13.2 28.15C13.2 30.5833 14.0083 32.6167 15.625 34.25C17.2417 35.8833 19.2667 36.7 21.7 36.7ZM21.7 33.7C20.1 33.7 18.7833 33.175 17.75 32.125C16.7167 31.075 16.2 29.75 16.2 28.15C16.2 26.5833 16.7167 25.2833 17.75 24.25C18.7833 23.2167 20.1 22.7 21.7 22.7C23.2667 22.7 24.575 23.2167 25.625 24.25C26.675 25.2833 27.2 26.5833 27.2 28.15C27.2 29.75 26.675 31.075 25.625 32.125C24.575 33.175 23.2667 33.7 21.7 33.7Z" fill="black"/>
</svg>
