<svg width="30" height="30" viewBox="0 0 30 30" fill="none" xmlns="http://www.w3.org/2000/svg">
    <path d="M13 3C12.8676 2.9982 12.7361 3.02274 12.6132 3.07219C12.4903 3.12164 12.3784 3.19501 12.2841 3.28805C12.1898 3.38108 12.1149 3.49193 12.0638 3.61415C12.0127 3.73637 11.9864 3.86752 11.9863 4H6.00002C5.86751 3.99813 5.73595 4.02261 5.61298 4.07202C5.49001 4.12144 5.37809 4.1948 5.28372 4.28784C5.18935 4.38088 5.11441 4.49176 5.06327 4.61401C5.01212 4.73627 4.98578 4.86748 4.98578 5C4.98578 5.13253 5.01212 5.26373 5.06327 5.38599C5.11441 5.50824 5.18935 5.61912 5.28372 5.71216C5.37809 5.80521 5.49001 5.87857 5.61298 5.92798C5.73595 5.97739 5.86751 6.00187 6.00002 6H24C24.1325 6.00187 24.2641 5.97739 24.3871 5.92798C24.51 5.87857 24.622 5.80521 24.7163 5.71216C24.8107 5.61912 24.8856 5.50824 24.9368 5.38599C24.9879 5.26373 25.0143 5.13253 25.0143 5C25.0143 4.86748 24.9879 4.73627 24.9368 4.61401C24.8856 4.49176 24.8107 4.38088 24.7163 4.28784C24.622 4.1948 24.51 4.12144 24.3871 4.07202C24.2641 4.02261 24.1325 3.99813 24 4H18.0137C18.0137 3.86752 17.9874 3.73637 17.9363 3.61415C17.8851 3.49193 17.8103 3.38108 17.716 3.28805C17.6216 3.19501 17.5098 3.12164 17.3869 3.07219C17.264 3.02274 17.1325 2.9982 17 3H13ZM6.00002 8V24C6.00002 25.105 6.89502 26 8.00002 26H22C23.105 26 24 25.105 24 24V8H6.00002Z" fill="black"/>
</svg>
