<svg width="20" height="20" viewBox="0 0 48 48" fill="none" xmlns="http://www.w3.org/2000/svg">
    <path d="M8.99999 9V11.2L33.25 35.45L34.35 34.35L35.45 33.25L11.2 9H8.99999ZM5.99999 6L12.4 6L41.8 35.4C42.3667 35.9667 42.6417 36.675 42.625 37.525C42.6083 38.375 42.3167 39.0833 41.75 39.65L39.6 41.8C39.0333 42.3667 38.3333 42.65 37.5 42.65C36.6667 42.65 35.9667 42.3667 35.4 41.8L5.99999 12.4V6ZM37.55 39.5L39.6 37.45L37.55 39.5ZM33.25 35.45L34.35 34.35L35.45 33.25L33.25 35.45Z" fill="black"/>
</svg>
