<svg width="47" height="47" viewBox="0 0 47 47" fill="none" xmlns="http://www.w3.org/2000/svg">
    <g clip-path="url(#clip0_12_6)">
        <path d="M22.082 2.60999C18.342 2.60999 14.484 3.20199 10.617 4.36999C9.50301 4.70599 6.11502 5.72999 4.87702 9.08199C3.65502 12.394 5.41302 15.133 6.69602 17.134C7.42802 18.276 8.25902 19.57 8.25902 20.471C8.25902 21.993 5.95802 25.151 4.43502 27.241C1.66402 31.045 -1.47899 35.354 0.763015 39.764C2.84402 43.856 7.89502 44.379 12.062 44.379C30.344 44.379 46.99 33.331 46.99 21.2C46.99 12.261 37.469 2.60999 22.082 2.60999ZM16.5 34.109C16.473 36.303 14.691 38.076 12.49 38.076C10.273 38.076 8.47602 36.278 8.47602 34.061C8.47602 31.842 10.273 30.044 12.49 30.044C13.172 30.044 13.804 30.232 14.367 30.53C15.633 31.205 16.504 32.521 16.504 34.056C16.503 34.078 16.5 34.095 16.5 34.109ZM17.01 15.082C16.162 14.346 15.615 13.273 15.615 12.062C15.615 9.84399 17.413 8.04699 19.63 8.04699C21.848 8.04699 23.645 9.84399 23.645 12.062C23.645 12.267 23.614 12.463 23.584 12.661C23.293 14.592 21.643 16.077 19.63 16.077C18.623 16.077 17.715 15.693 17.01 15.082ZM24.63 35.076C23.206 35.076 21.962 34.33 21.249 33.212C20.853 32.589 20.614 31.855 20.614 31.062C20.614 28.845 22.413 27.047 24.632 27.047C26.607 27.047 28.239 28.478 28.573 30.357C28.614 30.587 28.643 30.823 28.643 31.062C28.644 33.278 26.849 35.076 24.63 35.076ZM27.486 13.244C27.465 13.073 27.434 12.905 27.434 12.728C27.434 10.873 28.699 9.32699 30.409 8.86699C30.742 8.77699 31.087 8.71399 31.449 8.71399C33.024 8.71399 34.374 9.62999 35.031 10.951C35.301 11.489 35.463 12.087 35.463 12.728C35.463 14.115 34.762 15.337 33.692 16.058C33.051 16.491 32.28 16.743 31.45 16.743C29.408 16.743 27.742 15.215 27.486 13.244ZM33.74 28.743C33.064 28.743 32.435 28.559 31.877 28.264C30.606 27.589 29.729 26.268 29.729 24.729C29.729 22.511 31.526 20.712 33.743 20.712C35.001 20.712 36.109 21.302 36.847 22.206C37.409 22.896 37.761 23.768 37.761 24.727C37.755 26.945 35.958 28.743 33.74 28.743Z" fill="black"/>
    </g>
    <defs>
        <clipPath id="clip0_12_6">
            <rect width="46.991" height="46.99" fill="white"/>
        </clipPath>
    </defs>
</svg>
